<mxfile host="app.diagrams.net" agent="Mozilla/5.0 (X11; Ubuntu; Linux x86_64; rv:135.0) Gecko/20100101 Firefox/135.0" version="26.0.11">
  <diagram name="Página-1" id="2JrRSpOBJ5KqvM5kr54c">
    <mxGraphModel grid="1" page="1" gridSize="10" guides="1" tooltips="1" connect="1" arrows="1" fold="1" pageScale="1" pageWidth="827" pageHeight="1169" math="0" shadow="0">
      <root>
        <mxCell id="0" />
        <mxCell id="1" parent="0" />
        <mxCell id="Eg5FiAkWvvMtWeATNkTx-1" value="Cliente " style="swimlane;fontStyle=0;childLayout=stackLayout;horizontal=1;startSize=26;fillColor=none;horizontalStack=0;resizeParent=1;resizeParentMax=0;resizeLast=0;collapsible=1;marginBottom=0;html=1;" vertex="1" parent="1">
          <mxGeometry x="310" y="-120" width="140" height="120" as="geometry" />
        </mxCell>
        <mxCell id="Eg5FiAkWvvMtWeATNkTx-5" value="Veículo" style="swimlane;fontStyle=0;childLayout=stackLayout;horizontal=1;startSize=26;fillColor=none;horizontalStack=0;resizeParent=1;resizeParentMax=0;resizeLast=0;collapsible=1;marginBottom=0;html=1;" vertex="1" parent="1">
          <mxGeometry x="630" y="80" width="140" height="120" as="geometry" />
        </mxCell>
        <mxCell id="Eg5FiAkWvvMtWeATNkTx-6" value="*id_veículo (PK)&lt;br&gt;modelo&lt;br&gt;marca&lt;br&gt;ano&lt;br&gt;placa&lt;br&gt;id_cliente (FK)&lt;div&gt;&lt;br/&gt;&lt;/div&gt;" style="text;strokeColor=none;fillColor=none;align=left;verticalAlign=top;spacingLeft=4;spacingRight=4;overflow=hidden;rotatable=0;points=[[0,0.5],[1,0.5]];portConstraint=eastwest;whiteSpace=wrap;html=1;" vertex="1" parent="Eg5FiAkWvvMtWeATNkTx-5">
          <mxGeometry y="26" width="140" height="94" as="geometry" />
        </mxCell>
        <mxCell id="Eg5FiAkWvvMtWeATNkTx-9" value="Ordem de Serviço" style="swimlane;fontStyle=0;childLayout=stackLayout;horizontal=1;startSize=26;fillColor=none;horizontalStack=0;resizeParent=1;resizeParentMax=0;resizeLast=0;collapsible=1;marginBottom=0;html=1;" vertex="1" parent="1">
          <mxGeometry x="50" y="155" width="140" height="140" as="geometry" />
        </mxCell>
        <mxCell id="Eg5FiAkWvvMtWeATNkTx-10" value="*número_os (PK)&lt;br&gt;data_emissao&lt;br&gt;data_conclusao&lt;br&gt;valor_total&lt;br&gt;status&lt;br&gt;id_cliente (FK)&lt;br&gt;id_mecânico (FK)" style="text;strokeColor=none;fillColor=none;align=left;verticalAlign=top;spacingLeft=4;spacingRight=4;overflow=hidden;rotatable=0;points=[[0,0.5],[1,0.5]];portConstraint=eastwest;whiteSpace=wrap;html=1;" vertex="1" parent="Eg5FiAkWvvMtWeATNkTx-9">
          <mxGeometry y="26" width="140" height="114" as="geometry" />
        </mxCell>
        <mxCell id="Eg5FiAkWvvMtWeATNkTx-13" value="Serviço" style="swimlane;fontStyle=0;childLayout=stackLayout;horizontal=1;startSize=26;fillColor=none;horizontalStack=0;resizeParent=1;resizeParentMax=0;resizeLast=0;collapsible=1;marginBottom=0;html=1;" vertex="1" parent="1">
          <mxGeometry x="-270" width="140" height="140" as="geometry" />
        </mxCell>
        <mxCell id="Eg5FiAkWvvMtWeATNkTx-14" value="*id_serviço (PK)&lt;br&gt;nome_serviço&lt;br&gt;descricao&lt;br&gt;valor" style="text;strokeColor=none;fillColor=none;align=left;verticalAlign=top;spacingLeft=4;spacingRight=4;overflow=hidden;rotatable=0;points=[[0,0.5],[1,0.5]];portConstraint=eastwest;whiteSpace=wrap;html=1;" vertex="1" parent="Eg5FiAkWvvMtWeATNkTx-13">
          <mxGeometry y="26" width="140" height="114" as="geometry" />
        </mxCell>
        <mxCell id="Eg5FiAkWvvMtWeATNkTx-17" value="Peça" style="swimlane;fontStyle=0;childLayout=stackLayout;horizontal=1;startSize=26;fillColor=none;horizontalStack=0;resizeParent=1;resizeParentMax=0;resizeLast=0;collapsible=1;marginBottom=0;html=1;" vertex="1" parent="1">
          <mxGeometry x="-270" y="330" width="140" height="120" as="geometry" />
        </mxCell>
        <mxCell id="Eg5FiAkWvvMtWeATNkTx-18" value="*id_peça (PK)&lt;br/&gt;nome_peça&lt;br/&gt;descricao&lt;br/&gt;valor&lt;div&gt;&lt;br/&gt;&lt;/div&gt;" style="text;strokeColor=none;fillColor=none;align=left;verticalAlign=top;spacingLeft=4;spacingRight=4;overflow=hidden;rotatable=0;points=[[0,0.5],[1,0.5]];portConstraint=eastwest;whiteSpace=wrap;html=1;" vertex="1" parent="Eg5FiAkWvvMtWeATNkTx-17">
          <mxGeometry y="26" width="140" height="94" as="geometry" />
        </mxCell>
        <mxCell id="Eg5FiAkWvvMtWeATNkTx-21" value="Mecânico" style="swimlane;fontStyle=0;childLayout=stackLayout;horizontal=1;startSize=26;fillColor=none;horizontalStack=0;resizeParent=1;resizeParentMax=0;resizeLast=0;collapsible=1;marginBottom=0;html=1;" vertex="1" parent="1">
          <mxGeometry x="-270" y="170" width="140" height="110" as="geometry" />
        </mxCell>
        <mxCell id="Eg5FiAkWvvMtWeATNkTx-22" value="*id_mecânico (PK)&lt;br&gt;nome&lt;br&gt;endereco&lt;br&gt;especialidade&lt;div&gt;&lt;br/&gt;&lt;/div&gt;" style="text;strokeColor=none;fillColor=none;align=left;verticalAlign=top;spacingLeft=4;spacingRight=4;overflow=hidden;rotatable=0;points=[[0,0.5],[1,0.5]];portConstraint=eastwest;whiteSpace=wrap;html=1;" vertex="1" parent="Eg5FiAkWvvMtWeATNkTx-21">
          <mxGeometry y="26" width="140" height="84" as="geometry" />
        </mxCell>
        <mxCell id="Eg5FiAkWvvMtWeATNkTx-25" value="Tabela de Referência de Mão de Obra" style="swimlane;fontStyle=0;childLayout=stackLayout;horizontal=1;startSize=26;fillColor=none;horizontalStack=0;resizeParent=1;resizeParentMax=0;resizeLast=0;collapsible=1;marginBottom=0;html=1;" vertex="1" parent="1">
          <mxGeometry x="-700" y="170" width="270" height="130" as="geometry" />
        </mxCell>
        <mxCell id="Eg5FiAkWvvMtWeATNkTx-27" value="*id_tabela (PK)&lt;br&gt;nome_serviço&lt;br&gt;valor_hora" style="text;strokeColor=none;fillColor=none;align=left;verticalAlign=top;spacingLeft=4;spacingRight=4;overflow=hidden;rotatable=0;points=[[0,0.5],[1,0.5]];portConstraint=eastwest;whiteSpace=wrap;html=1;" vertex="1" parent="Eg5FiAkWvvMtWeATNkTx-25">
          <mxGeometry y="26" width="270" height="104" as="geometry" />
        </mxCell>
        <mxCell id="Eg5FiAkWvvMtWeATNkTx-29" style="edgeStyle=orthogonalEdgeStyle;rounded=0;orthogonalLoop=1;jettySize=auto;html=1;exitX=1;exitY=0.5;exitDx=0;exitDy=0;entryX=0;entryY=0.5;entryDx=0;entryDy=0;" edge="1" parent="1" source="Eg5FiAkWvvMtWeATNkTx-2" target="Eg5FiAkWvvMtWeATNkTx-6">
          <mxGeometry relative="1" as="geometry">
            <Array as="points">
              <mxPoint x="540" y="-47" />
              <mxPoint x="540" y="153" />
            </Array>
          </mxGeometry>
        </mxCell>
        <mxCell id="Eg5FiAkWvvMtWeATNkTx-30" value="1:N" style="text;html=1;align=center;verticalAlign=middle;resizable=0;points=[];autosize=1;strokeColor=none;fillColor=none;" vertex="1" parent="1">
          <mxGeometry x="470" y="-80" width="40" height="30" as="geometry" />
        </mxCell>
        <mxCell id="Eg5FiAkWvvMtWeATNkTx-31" style="edgeStyle=orthogonalEdgeStyle;rounded=0;orthogonalLoop=1;jettySize=auto;html=1;exitX=0;exitY=0.5;exitDx=0;exitDy=0;entryX=1;entryY=0.5;entryDx=0;entryDy=0;" edge="1" parent="1" source="Eg5FiAkWvvMtWeATNkTx-2" target="Eg5FiAkWvvMtWeATNkTx-10">
          <mxGeometry relative="1" as="geometry" />
        </mxCell>
        <mxCell id="Eg5FiAkWvvMtWeATNkTx-2" value="*id_cliente (PK)&lt;br&gt;nome&lt;br&gt;endereco&lt;br&gt;telefone" style="text;strokeColor=none;fillColor=none;align=left;verticalAlign=top;spacingLeft=4;spacingRight=4;overflow=hidden;rotatable=0;points=[[0,0.5],[1,0.5]];portConstraint=eastwest;whiteSpace=wrap;html=1;" vertex="1" parent="1">
          <mxGeometry x="310" y="-94" width="140" height="94" as="geometry" />
        </mxCell>
        <mxCell id="Eg5FiAkWvvMtWeATNkTx-32" value="1:N" style="text;html=1;align=center;verticalAlign=middle;resizable=0;points=[];autosize=1;strokeColor=none;fillColor=none;" vertex="1" parent="1">
          <mxGeometry x="261" y="-82" width="40" height="30" as="geometry" />
        </mxCell>
        <mxCell id="Eg5FiAkWvvMtWeATNkTx-33" style="edgeStyle=orthogonalEdgeStyle;rounded=0;orthogonalLoop=1;jettySize=auto;html=1;exitX=1;exitY=0.5;exitDx=0;exitDy=0;" edge="1" parent="1" source="Eg5FiAkWvvMtWeATNkTx-22" target="Eg5FiAkWvvMtWeATNkTx-10">
          <mxGeometry relative="1" as="geometry" />
        </mxCell>
        <mxCell id="Eg5FiAkWvvMtWeATNkTx-34" value="1:N" style="text;html=1;align=center;verticalAlign=middle;resizable=0;points=[];autosize=1;strokeColor=none;fillColor=none;" vertex="1" parent="1">
          <mxGeometry x="-110" y="200" width="40" height="30" as="geometry" />
        </mxCell>
        <mxCell id="Eg5FiAkWvvMtWeATNkTx-35" style="edgeStyle=orthogonalEdgeStyle;rounded=0;orthogonalLoop=1;jettySize=auto;html=1;exitX=1;exitY=0.5;exitDx=0;exitDy=0;entryX=0;entryY=0.5;entryDx=0;entryDy=0;" edge="1" parent="1" source="Eg5FiAkWvvMtWeATNkTx-14" target="Eg5FiAkWvvMtWeATNkTx-10">
          <mxGeometry relative="1" as="geometry" />
        </mxCell>
        <mxCell id="Eg5FiAkWvvMtWeATNkTx-36" value="N:M" style="text;html=1;align=center;verticalAlign=middle;resizable=0;points=[];autosize=1;strokeColor=none;fillColor=none;" vertex="1" parent="1">
          <mxGeometry x="-115" y="40" width="50" height="30" as="geometry" />
        </mxCell>
        <mxCell id="Eg5FiAkWvvMtWeATNkTx-37" style="edgeStyle=orthogonalEdgeStyle;rounded=0;orthogonalLoop=1;jettySize=auto;html=1;exitX=1;exitY=0.5;exitDx=0;exitDy=0;" edge="1" parent="1" source="Eg5FiAkWvvMtWeATNkTx-18" target="Eg5FiAkWvvMtWeATNkTx-10">
          <mxGeometry relative="1" as="geometry" />
        </mxCell>
        <mxCell id="Eg5FiAkWvvMtWeATNkTx-38" value="N:M" style="text;html=1;align=center;verticalAlign=middle;resizable=0;points=[];autosize=1;strokeColor=none;fillColor=none;" vertex="1" parent="1">
          <mxGeometry x="-114" y="358" width="50" height="30" as="geometry" />
        </mxCell>
        <mxCell id="Eg5FiAkWvvMtWeATNkTx-40" style="edgeStyle=orthogonalEdgeStyle;rounded=0;orthogonalLoop=1;jettySize=auto;html=1;exitX=1;exitY=0.5;exitDx=0;exitDy=0;entryX=0;entryY=0.5;entryDx=0;entryDy=0;" edge="1" parent="1" source="Eg5FiAkWvvMtWeATNkTx-27" target="Eg5FiAkWvvMtWeATNkTx-14">
          <mxGeometry relative="1" as="geometry" />
        </mxCell>
        <mxCell id="Eg5FiAkWvvMtWeATNkTx-41" value="1:N" style="text;html=1;align=center;verticalAlign=middle;resizable=0;points=[];autosize=1;strokeColor=none;fillColor=none;" vertex="1" parent="1">
          <mxGeometry x="-419" y="208" width="40" height="30" as="geometry" />
        </mxCell>
      </root>
    </mxGraphModel>
  </diagram>
</mxfile>
